# xmcd CD database file
#
# Track frame offsets:
#	150
#	14487
#	27215
#	43413
#
# Disc length: 867 seconds
#
# Revision: 1
# Processed by: cddbd v1.5.1PL0 Copyright (c) Steve Scherf et al.
# Submitted via: CDex 1.51
#
DISCID=2e036104
DTITLE=GOOD 4 NOTHING - WE CAN GO EVERYWHERE
DYEAR=2004
DGENRE=Punk
TTITLE0=WE CAN GO EVERYWHERE
TTITLE1=WALK TOWARD THE BRIGHTEST STAR
TTITLE2=Time for reality
TTITLE3=CAUSE YOU'RE ALIVE
EXTD=YEAR: 2004
EXTT0=
EXTT1=
EXTT2=
EXTT3=
PLAYORDER=
